HIERARCHY
ROOT Hips
{
	OFFSET 55.013302 -7.585686 96.185501
	CHANNELS 6 Xposition Yposition Zposition Xrotation Yrotation Zrotation
	JOINT spine
	{
		OFFSET 0.000000 -0.467661 8.132492
		CHANNELS 3 Xrotation Yrotation Zrotation
		JOINT spine1
		{
			OFFSET 0.000000 -0.000002 10.349800
			CHANNELS 3 Xrotation Yrotation Zrotation
			JOINT spine2
			{
				OFFSET 0.000000 -0.000001 9.916992
				CHANNELS 3 Xrotation Yrotation Zrotation
				JOINT Neck
				{
					OFFSET 0.000000 -1.213904 25.461006
					CHANNELS 3 Xrotation Yrotation Zrotation
					JOINT Head
					{
						OFFSET 0.000000 -0.000001 7.692444
						CHANNELS 3 Xrotation Yrotation Zrotation
						End Site
						{
							OFFSET 0.000000 6.140627 18.619995
						}
					}
				}
				JOINT RightShoulder
				{
					OFFSET -4.175751 0.581443 10.709602
					CHANNELS 3 Xrotation Yrotation Zrotation
					JOINT RightArm
					{
						OFFSET 0.000000 -0.000002 14.046600
						CHANNELS 3 Xrotation Yrotation Zrotation
						JOINT RightArmRoll
						{
							OFFSET 0.000000 -0.000001 7.090973
							CHANNELS 3 Xrotation Yrotation Zrotation
							JOINT RightForeArm
							{
								OFFSET 0.000000 -0.000004 20.653503
								CHANNELS 3 Xrotation Yrotation Zrotation
								JOINT RightForeArmRoll
								{
									OFFSET 0.000000 -0.000001 7.957184
									CHANNELS 3 Xrotation Yrotation Zrotation
									JOINT RightHand
									{
										OFFSET 0.000000 -0.000003 15.968307
										CHANNELS 3 Xrotation Yrotation Zrotation
										End Site
										{
											OFFSET 0.000000 0.000000 0.100006
										}
									}
								}
							}
						}
					}
				}
				JOINT LeftShoulder
				{
					OFFSET 4.175751 0.581443 10.709602
					CHANNELS 3 Xrotation Yrotation Zrotation
					JOINT LeftArm
					{
						OFFSET 0.000000 -0.000002 14.046600
						CHANNELS 3 Xrotation Yrotation Zrotation
						JOINT LeftArmRoll
						{
							OFFSET 0.000000 -0.000001 7.090973
							CHANNELS 3 Xrotation Yrotation Zrotation
							JOINT LeftForeArm
							{
								OFFSET 0.000000 -0.000004 20.653503
								CHANNELS 3 Xrotation Yrotation Zrotation
								JOINT LeftForeArmRoll
								{
									OFFSET 0.000000 -0.000001 7.957184
									CHANNELS 3 Xrotation Yrotation Zrotation
									JOINT LeftHand
									{
										OFFSET 0.000000 -0.000003 15.968307
										CHANNELS 3 Xrotation Yrotation Zrotation
										End Site
										{
											OFFSET 0.000000 0.000000 0.100006
										}
									}
								}
							}
						}
					}
				}
			}
		}
	}
	JOINT RightUpLeg
	{
		OFFSET -7.208340 1.108840 -1.321823
		CHANNELS 3 Xrotation Yrotation Zrotation
		JOINT RightUpLegRoll
		{
			OFFSET 0.000000 -0.000003 18.723801
			CHANNELS 3 Xrotation Yrotation Zrotation
			JOINT RightLeg
			{
				OFFSET 0.000000 0.000004 -23.186600
				CHANNELS 3 Xrotation Yrotation Zrotation
				JOINT RightLegRoll
				{
					OFFSET 0.000000 -0.000004 23.262398
					CHANNELS 3 Xrotation Yrotation Zrotation
					JOINT RightFoot
					{
						OFFSET 0.000000 -0.000003 19.362099
						CHANNELS 3 Xrotation Yrotation Zrotation
						JOINT RightToeBase
						{
							OFFSET 0.000000 -0.000003 16.185699
							CHANNELS 3 Xrotation Yrotation Zrotation
							End Site
							{
								OFFSET 0.006859 0.903521 7.838623
							}
						}
					}
				}
			}
		}
	}
	JOINT LeftUpLeg
	{
		OFFSET 7.208340 1.108840 -1.321823
		CHANNELS 3 Xrotation Yrotation Zrotation
		JOINT LeftUpLegRoll
		{
			OFFSET 0.000000 -0.000003 18.723900
			CHANNELS 3 Xrotation Yrotation Zrotation
			JOINT LeftLeg
			{
				OFFSET 0.000000 -0.000004 23.186501
				CHANNELS 3 Xrotation Yrotation Zrotation
				JOINT LeftLegRoll
				{
					OFFSET 0.000000 -0.000004 23.477509
					CHANNELS 3 Xrotation Yrotation Zrotation
					JOINT LeftFoot
					{
						OFFSET 0.000000 -0.000003 19.147003
						CHANNELS 3 Xrotation Yrotation Zrotation
						JOINT LeftToeBase
						{
							OFFSET 0.000000 -0.000003 16.185699
							CHANNELS 3 Xrotation Yrotation Zrotation
							End Site
							{
								OFFSET -0.030746 0.903521 7.838623
							}
						}
					}
				}
			}
		}
	}
}
MOTION
Frames: 12
Frame Time: 0.041667
54.262802 -5.186856 96.243889 -0.849073 -0.334352 0.664826 -2.336386 -0.139548 0.042806 -0.669850 -0.280058 0.081289 0.975233 -0.279064 0.084638 17.758377 0.841243 -3.363108 -2.247695 1.213747 -3.474614 -20.307146 -33.767308 -24.317195 55.936596 -38.332094 98.967481 0.000004 0.000009 -0.000031 0.139056 8.320786 1.168077 -0.000016 -0.000001 -3.008557 -5.000170 -8.000477 -0.000056 -19.936678 42.409358 23.711782 38.784259 34.955525 -74.702278 0.000007 -0.000010 0.000002 -0.039841 -5.377948 0.883029 -0.000000 0.000004 3.041942 -5.000165 8.000019 0.000001 -4.770531 -171.674537 3.548097 179.999991 -0.000006 -0.938996 170.558921 -1.625687 -0.601291 -0.000003 0.000000 -0.045520 68.079760 6.108126 4.167270 25.457761 -7.355617 0.001288 -2.853316 174.864345 -0.083069 -0.000005 -0.000005 -1.020980 -10.554016 1.027345 0.559940 -0.000001 -0.000003 -0.163677 71.125362 -6.490497 -3.078564 25.459105 7.347818 -0.000478 
54.264900 -5.176486 96.243393 -0.839535 -0.334467 0.665123 -2.339388 -0.138563 0.040975 -0.675866 -0.277937 0.077652 0.969218 -0.276986 0.080976 17.798587 0.821223 -3.359673 -2.286241 1.233598 -3.471864 -20.286871 -33.785138 -24.288667 55.916126 -38.336616 98.952953 0.000003 0.000008 -0.000030 0.131641 8.322430 1.168635 -0.000015 0.000001 -3.008562 -5.000171 -8.000480 -0.000057 -19.954635 42.408009 23.735157 38.776073 34.962495 -74.678495 0.000006 -0.000009 0.000004 -0.039842 -5.363350 0.885572 -0.000001 0.000004 3.041990 -5.000166 8.000019 0.000001 -4.785329 -171.673718 3.546323 179.999991 -0.000005 -0.938995 170.551313 -1.626634 -0.601670 -0.000003 -0.000000 -0.045529 68.081796 6.108786 4.167485 25.457765 -7.355619 0.001290 -2.865229 174.863389 -0.082148 -0.000005 -0.000005 -1.020930 -10.557722 1.028385 0.560060 -0.000001 -0.000002 -0.163642 71.126503 -6.490090 -3.081228 25.459105 7.347818 -0.000479 
54.259399 -5.173702 96.241997 -0.828183 -0.334746 0.665347 -2.343006 -0.137485 0.038745 -0.683113 -0.275653 0.073216 0.961971 -0.274757 0.076512 17.845903 0.801493 -3.355680 -2.331927 1.253632 -3.468392 -20.262231 -33.803228 -24.254046 55.894723 -38.343022 98.939033 0.000003 0.000010 -0.000029 0.122902 8.324994 1.169436 -0.000016 -0.000000 -3.008560 -5.000171 -8.000479 -0.000053 -19.975679 42.408385 23.762597 38.764305 34.970241 -74.648544 0.000007 -0.000008 0.000007 -0.039842 -5.346039 0.888572 -0.000002 0.000004 3.042064 -5.000165 8.000020 0.000002 -4.802937 -171.671928 3.544156 179.999991 -0.000006 -0.938996 170.542392 -1.627589 -0.601092 -0.000003 0.000000 -0.045537 68.084268 6.109457 4.167776 25.457763 -7.355618 0.001289 -2.878692 174.863443 -0.081334 -0.000005 -0.000005 -1.020880 -10.560926 1.029937 0.560138 -0.000001 -0.000003 -0.163608 71.127295 -6.489614 -3.084403 25.459102 7.347819 -0.000478 
54.280605 -5.251325 96.253403 -0.815420 -0.335199 0.665477 -2.347104 -0.136336 0.036201 -0.691319 -0.273255 0.068156 0.953765 -0.272418 0.071424 17.898926 0.782354 -3.351237 -2.383246 1.273469 -3.464322 -20.234114 -33.821218 -24.214586 55.872983 -38.351205 98.926069 0.000003 0.000009 -0.000029 0.113135 8.328315 1.170444 -0.000015 0.000001 -3.008562 -5.000171 -8.000475 -0.000056 -19.999185 42.410301 23.793259 38.749606 34.978515 -74.613710 0.000006 -0.000008 0.000008 -0.039844 -5.326569 0.891948 -0.000001 0.000005 3.042152 -5.000166 8.000020 0.000001 -4.822723 -171.671163 3.541857 179.999991 -0.000005 -0.938996 170.532379 -1.627541 -0.601376 -0.000003 0.000000 -0.045545 68.086946 6.110147 4.168065 25.457759 -7.355617 0.001289 -2.893249 174.863525 -0.080569 -0.000005 -0.000004 -1.020830 -10.563635 1.031913 0.560174 -0.000001 -0.000002 -0.163575 71.127951 -6.489004 -3.088065 25.459107 7.347818 -0.000478 
54.276703 -5.232918 96.250198 -0.801645 -0.335838 0.665493 -2.351557 -0.135138 0.033434 -0.700216 -0.270783 0.062648 0.944867 -0.270013 0.065887 17.956151 0.764106 -3.346498 -2.438681 1.292759 -3.459817 -20.203327 -33.838885 -24.171496 55.851352 -38.360658 98.914212 0.000002 0.000010 -0.000029 0.102641 8.332258 1.171615 -0.000015 0.000001 -3.008560 -5.000171 -8.000479 -0.000056 -20.024508 42.413480 23.826212 38.732548 34.987122 -74.575099 0.000007 -0.000009 0.000005 -0.039843 -5.305528 0.895591 -0.000001 0.000005 3.042259 -5.000166 8.000019 0.000007 -4.844105 -171.669456 3.539374 179.999991 -0.000005 -0.938996 170.521588 -1.628474 -0.600850 -0.000003 0.000000 -0.045554 68.089848 6.110864 4.168342 25.457758 -7.355619 0.001290 -2.908443 174.863593 -0.079841 -0.000005 -0.000004 -1.020780 -10.565842 1.034235 0.560168 -0.000001 -0.000002 -0.163541 71.128374 -6.488398 -3.091837 25.459107 7.347818 -0.000479 
54.261703 -5.180845 96.242096 -0.787288 -0.336673 0.665371 -2.356207 -0.133918 0.030530 -0.709532 -0.268283 0.056866 0.935552 -0.267583 0.060076 18.015981 0.747047 -3.341592 -2.496694 1.311115 -3.455006 -20.170863 -33.855748 -24.125941 55.830233 -38.371152 98.903578 0.000003 0.000009 -0.000028 0.091720 8.336663 1.172903 -0.000015 0.000000 -3.008561 -5.000172 -8.000478 -0.000057 -20.050801 42.417872 23.860475 38.713809 34.995878 -74.533784 0.000006 -0.000009 0.000003 -0.039842 -5.283469 0.899403 -0.000001 0.000004 3.042381 -5.000165 8.000020 0.000001 -4.866454 -171.666723 3.536803 179.999991 -0.000005 -0.938996 170.510290 -1.629404 -0.601335 -0.000003 0.000000 -0.045562 68.092751 6.111616 4.168527 25.457759 -7.355620 0.001290 -2.923794 174.863662 -0.079142 -0.000005 -0.000005 -1.020740 -10.567351 1.036836 0.560120 -0.000001 -0.000003 -0.163509 71.128586 -6.487755 -3.095817 25.459105 7.347818 -0.000479 
54.265099 -5.200226 96.245003 -0.772733 -0.337714 0.665091 -2.360937 -0.132698 0.027577 -0.718996 -0.265801 0.050987 0.926086 -0.265170 0.054168 18.077025 0.731478 -3.336660 -2.555769 1.328188 -3.450031 -20.137517 -33.871584 -24.079328 55.810186 -38.382426 98.894398 0.000003 0.000009 -0.000027 0.080674 8.341385 1.174267 -0.000016 -0.000001 -3.008560 -5.000171 -8.000476 -0.000058 -20.077411 42.423196 23.895099 38.693749 35.004658 -74.490945 0.000007 -0.000010 0.000004 -0.039842 -5.260980 0.903279 -0.000001 0.000004 3.042520 -5.000165 8.000020 0.000000 -4.889138 -171.665016 3.534417 179.999991 -0.000005 -0.938995 170.498761 -1.630333 -0.601827 -0.000003 0.000000 -0.045571 68.095729 6.112269 4.168988 25.457763 -7.355619 0.001289 -2.938841 174.864741 -0.078515 -0.000004 -0.000005 -1.020700 -10.568260 1.039634 0.560032 -0.000001 -0.000003 -0.163476 71.128586 -6.487112 -3.099810 25.459105 7.347818 -0.000479 
54.259403 -5.169635 96.242691 -0.758400 -0.338972 0.664633 -2.365608 -0.131502 0.024663 -0.728342 -0.263380 0.045186 0.916742 -0.262819 0.048338 18.137670 0.717693 -3.331853 -2.614380 1.343601 -3.445055 -20.104262 -33.885835 -24.032705 55.791540 -38.394143 98.886577 0.000003 0.000010 -0.000030 0.069801 8.346266 1.175668 -0.000015 0.000000 -3.008561 -5.000172 -8.000477 -0.000057 -20.103752 42.429354 23.929361 38.673016 35.013216 -74.447559 0.000006 -0.000009 0.000007 -0.039843 -5.238610 0.907139 -0.000001 0.000004 3.042655 -5.000165 8.000020 0.000002 -4.911561 -171.662284 3.532153 179.999991 -0.000005 -0.938996 170.487273 -1.631262 -0.601308 -0.000003 0.000001 -0.045579 68.098612 6.112907 4.169353 25.457758 -7.355619 0.001290 -2.953124 174.865793 -0.077898 -0.000004 -0.000005 -1.020650 -10.568470 1.042554 0.559903 -0.000001 -0.000002 -0.163445 71.128490 -6.486495 -3.103614 25.459110 7.347818 -0.000478 
54.261402 -5.173244 96.242493 -0.744699 -0.340458 0.663974 -2.370073 -0.130352 0.021876 -0.737294 -0.261065 0.039637 0.907790 -0.260572 0.042762 18.196531 0.705989 -3.327302 -2.671007 1.356995 -3.440220 -20.071834 -33.898454 -23.987505 55.774789 -38.406024 98.880505 0.000003 0.000013 -0.000029 0.059401 8.351156 1.177054 -0.000016 0.000001 -3.008560 -5.000171 -8.000476 -0.000053 -20.129070 42.436191 23.962361 38.652177 35.021334 -74.404953 0.000007 -0.000010 0.000004 -0.039843 -5.216951 0.910866 -0.000001 0.000004 3.042806 -5.000166 8.000020 0.000003 -4.933102 -171.659565 3.530193 179.999991 -0.000005 -0.938996 170.476112 -1.632204 -0.601793 -0.000003 -0.000001 -0.045588 68.101357 6.113462 4.169908 25.457758 -7.355616 0.001289 -2.966187 174.866858 -0.077280 -0.000004 -0.000005 -1.020610 -10.567880 1.045514 0.559730 -0.000001 -0.000003 -0.163413 71.128285 -6.485881 -3.107422 25.459107 7.347818 -0.000479 
54.260399 -5.184225 96.244392 -0.732032 -0.342181 0.663093 -2.374227 -0.129275 0.019303 -0.745585 -0.258904 0.034517 0.899499 -0.258471 0.037615 18.252096 0.696661 -3.323166 -2.724136 1.368004 -3.435675 -20.041319 -33.908898 -23.944823 55.760438 -38.417731 98.876195 0.000004 0.000009 -0.000029 0.049777 8.355919 1.178396 -0.000016 0.000000 -3.008558 -5.000173 -8.000476 -0.000055 -20.152550 42.443362 23.992930 38.631939 35.028847 -74.364183 0.000006 -0.000010 0.000009 -0.039841 -5.196549 0.914370 -0.000002 0.000004 3.042958 -5.000166 8.000019 0.000002 -4.953132 -171.656833 3.528642 179.999991 -0.000006 -0.938996 170.465566 -1.633139 -0.601262 -0.000003 0.000000 -0.045596 68.103885 6.113955 4.170464 25.457759 -7.355618 0.001289 -2.977553 174.867896 -0.076654 -0.000005 -0.000005 -1.020570 -10.566591 1.048428 0.559514 -0.000001 -0.000002 -0.163382 71.127896 -6.485361 -3.110757 25.459105 7.347818 -0.000478 
54.258003 -5.175138 96.243492 -0.720802 -0.344153 0.661968 -2.377897 -0.128293 0.017032 -0.752944 -0.256940 0.029999 0.892140 -0.256561 0.033074 18.302776 0.690002 -3.319586 -2.772241 1.376269 -3.431594 -20.013409 -33.916933 -23.905911 55.748861 -38.429004 98.873777 0.000003 0.000011 -0.000030 0.041225 8.360382 1.179648 -0.000015 0.000001 -3.008560 -5.000173 -8.000476 -0.000056 -20.173643 42.450865 24.020363 38.612787 35.035664 -74.326583 0.000007 -0.000009 0.000006 -0.039842 -5.177989 0.917552 -0.000002 0.000004 3.043107 -5.000166 8.000020 0.000004 -4.971051 -171.653077 3.527530 179.999991 -0.000005 -0.938996 170.455895 -1.634075 -0.601702 -0.000003 0.000001 -0.045604 68.106063 6.114301 4.171111 25.457759 -7.355618 0.001289 -2.986758 174.869946 -0.076062 -0.000004 -0.000005 -1.020540 -10.564398 1.051239 0.559257 -0.000002 -0.000003 -0.163352 71.127439 -6.484938 -3.113614 25.459105 7.347819 -0.000479 
54.262302 -5.170117 96.242691 -0.711428 -0.346383 0.660579 -2.380978 -0.127430 0.015152 -0.759100 -0.255219 0.026258 0.885984 -0.254885 0.029313 18.347162 0.686306 -3.316714 -2.813789 1.381434 -3.428120 -19.989261 -33.922281 -23.872211 55.740631 -38.439434 98.873518 0.000004 0.000007 -0.000029 0.034045 8.364413 1.180757 -0.000015 0.000001 -3.008561 -5.000172 -8.000478 -0.000056 -20.191554 42.458447 24.043729 38.595326 35.041452 -74.293054 0.000007 -0.000009 0.000003 -0.039842 -5.161829 0.920312 -0.000001 0.000004 3.043257 -5.000165 8.000019 0.000004 -4.986242 -171.649279 3.527020 179.999991 -0.000005 -0.938996 170.447371 -1.635018 -0.602111 -0.000003 0.000000 -0.045612 68.107887 6.114534 4.171955 25.457759 -7.355617 0.001289 -2.993357 174.871967 -0.075441 -0.000005 -0.000004 -1.020500 -10.561308 1.053854 0.558957 -0.000001 -0.000003 -0.163323 71.127001 -6.484581 -3.115980 25.459107 7.347818 -0.000478 
